# xmcd
#
# Track frame offsets:
#	150
#	21662
#	40811
#	52208
#	59868
#	71581
#	85138
#	101843
#	114156
#	130151
#	144588
#	161511
#	178646
#	187728
#	201188
#	211696
#	227328
#	240408
#	251961
#	271406
#
# Disc length: 3732 seconds
#
# Revision: 0
# Processed by: cddbd v1.4PL0 Copyright (c) Steve Scherf et al.
# Submitted via: dBpowerAMP V4.0
#
DISCID=220e9214
DTITLE=Jerry Lee Lewis Live (Poor) - Live In Concert
DYEAR=1900
DGENRE=Country
TTITLE0=Who's Sorry Now?
TTITLE1=Flip, Flop and Fly/Shake, Rattle and Roll
TTITLE2=Chantilly Lace
TTITLE3=Great Balls Of Fire
TTITLE4=Whole Lotta Shakin' Goin' On
TTITLE5=What'd I Say
TTITLE6=Honky Tonk Angel
TTITLE7=Think About It Darlin'
TTITLE8=Help Me Make It Through The Night
TTITLE9=Middle Age Crazy
TTITLE10=Mona Lisa
TTITLE11=Little Queenie
TTITLE12=Brown-eyed Handsome Man
TTITLE13=Good Golly Miss Molly/Tutti Fruitti
TTITLE14=I Got A Woman
TTITLE15=Please Don't Talk About Me when I'm Gone
TTITLE16=Boogie Woogie Country Man
TTITLE17=Another Place, Another Time
TTITLE18=Me And Bobby McGee
TTITLE19=Rockin' Jerry Lewis
EXTD=
EXTT0=
EXTT1=
EXTT2=
EXTT3=
EXTT4=
EXTT5=
EXTT6=
EXTT7=
EXTT8=
EXTT9=
EXTT10=
EXTT11=
EXTT12=
EXTT13=
EXTT14=
EXTT15=
EXTT16=
EXTT17=
EXTT18=
EXTT19=
PLAYORDER=
